# xmcd
#
# Track frame offsets:
#	150
#	13522
#	26697
#	38697
#	50250
#	63147
#	78597
#	90372
#	103122
#	115197
#	128622
#	158247
#	169497
#	184800
#	193572
#	204447
#
# Disc length: 2895
#
# Revision: 2
# Processed by: cddbd v1.5.1PL0 Copyright (c) Steve Scherf et al.
# Submitted via: audiograbber 1.83.01
# Normalized: r1:DSETVAR1
#
DISCID=c70b4d10
DTITLE=Various Artist - Golden Soul - CD 2
DYEAR=1995
DGENRE=Soul
TTITLE0=Eddie Floyd - Knock on Wood
TTITLE1=Percy Sledge - When a Man loves a Woman
TTITLE2=The Drifters - Under the Boardwalk
TTITLE3=Martha Reeves - Dancing in the Street
TTITLE4=Sam and Dave - I thank You
TTITLE5=Dobie Gray - Drift away
TTITLE6=Percy Sledge - (Sittin' on) The Dock of the Bay
TTITLE7=Z.Z. Hill - Chokin' Kind
TTITLE8=Wilbert Harrison - Let's stick together
TTITLE9=J. Williams Jr. - Lucky
TTITLE10=James Brown - It's a Man's, Man's World
TTITLE11=Ike and Tina Turner - Ain't that a Shame
TTITLE12=Chuck Jackson - Any Day now
TTITLE13=P. Mayfield - Hit the Road Jack
TTITLE14=Sam and Dave - Hold on I'm coming
TTITLE15=Mary Wells - My Guy
EXTD=
EXTT0=
EXTT1=
EXTT2=
EXTT3=
EXTT4=
EXTT5=
EXTT6=
EXTT7=
EXTT8=
EXTT9=
EXTT10=
EXTT11=
EXTT12=
EXTT13=
EXTT14=
EXTT15=
PLAYORDER=
